<?xml version="1.0" encoding="utf-8"?>
<svg version="1.1" id="logo" xmlns="http://www.w3.org/2000/svg" xmlns:xlink="http://www.w3.org/1999/xlink" x="0px" y="0px"
     viewBox="0 0 2270 2500" style="enable-background:new 0 0 2270 2500;" xml:space="preserve">
<style type="text/css">
    .st0{opacity:0.5;}
    .st1{fill:url(#SVGID_1_);stroke:#FFFFFF;}
    .st2{fill:url(#SVGID_2_);stroke:#FFFFFF;stroke-miterlimit:10;}
    .st3{fill:url(#SVGID_3_);stroke:#FFFFFF;stroke-miterlimit:10;}
    .st4{fill:#8CC84B;}
    .st5{fill:url(#SVGID_4_);}
    .st6{fill:url(#SVGID_5_);}
</style>
<g>
    <g class="st0">
            <linearGradient id="SVGID_1_" gradientUnits="userSpaceOnUse" x1="-247.2131" y1="2971.4106" x2="-737.6777" y2="2974.7617" gradientTransform="matrix(-0.9771 -0.323 -0.2901 0.8773 1772.0212 -1240.9092)">
            <stop  offset="0.2308" style="stop-color:#979675"/>
            <stop  offset="0.5632" style="stop-color:#999877"/>
            <stop  offset="0.6829" style="stop-color:#9E9D7E"/>
            <stop  offset="0.7683" style="stop-color:#A8A789"/>
            <stop  offset="0.8373" style="stop-color:#B6B49A"/>
            <stop  offset="0.8964" style="stop-color:#C8C6B0"/>
            <stop  offset="0.9482" style="stop-color:#DEDCCB"/>
            <stop  offset="0.9944" style="stop-color:#F7F5EB"/>
            <stop  offset="1" style="stop-color:#FBF9EF"/>
        </linearGradient>
        <path class="st1" d="M1426.8,2205.8l-40.6-13.5c0,0,6.8-209.8-71.1-226.7c-50.8-57.5,6.8-2476.8,189.5-6.8
            c0,0-60.9,30.5-74.4,84.6C1416.7,2094.1,1426.8,2205.8,1426.8,2205.8z"/>
        
            <linearGradient id="SVGID_2_" gradientUnits="userSpaceOnUse" x1="-172.713" y1="2113.2075" x2="-878.2286" y2="3335.1958" gradientTransform="matrix(-0.9771 -0.323 -0.2901 0.8773 1772.0212 -1240.9092)">
            <stop  offset="0" style="stop-color:#48A548"/>
            <stop  offset="1" style="stop-color:#3D9043"/>
        </linearGradient>
        <path class="st2" d="M1450.5,2002.7c0,0,362.1-236.9,277.5-730.9c-84.6-362.1-277.5-480.5-297.8-524.5c-23.7-30.5-44-88-44-88
            l16.9,1001.6C1399.7,1661,1369.3,1965.5,1450.5,2002.7z"/>
        
            <linearGradient id="SVGID_3_" gradientUnits="userSpaceOnUse" x1="-106.3874" y1="2990.7456" x2="-606.3505" y2="2654.9221" gradientTransform="matrix(-0.9771 -0.323 -0.2901 0.8773 1772.0212 -1240.9092)">
            <stop  offset="0" style="stop-color:#40A248"/>
            <stop  offset="0.3523" style="stop-color:#4AA74B"/>
            <stop  offset="0.9557" style="stop-color:#66B452"/>
            <stop  offset="1" style="stop-color:#68B553"/>
        </linearGradient>
        <path class="st3" d="M1362.5,2016.3c0,0-338.4-230.1-318.1-639.5c20.3-409.4,260.5-609.1,304.5-646.3c30.5-33.8,30.5-44,33.8-77.8
            c20.3,44,16.9,676.7,20.3,751.2C1413.3,1694.8,1386.2,1962.1,1362.5,2016.3z"/>
    </g>
    <g>
        <path class="st4" d="M1426.8,2224.8l-40.6-13.5c0,0,6.8-209.8-71.1-226.7c-50.8-57.5,6.8-2476.8,189.5-6.8
            c0,0-60.9,30.5-74.4,84.6C1416.7,2113.1,1426.8,2224.8,1426.8,2224.8z"/>
        
            <linearGradient id="SVGID_4_" gradientUnits="userSpaceOnUse" x1="-178.5094" y1="2132.7307" x2="-884.025" y2="3354.7192" gradientTransform="matrix(-0.9771 -0.323 -0.2901 0.8773 1772.0212 -1240.9092)">
            <stop  offset="0" style="stop-color:#48A548"/>
            <stop  offset="1" style="stop-color:#3D9043"/>
        </linearGradient>
        <path class="st5" d="M1450.5,2021.7c0,0,362.1-236.9,277.5-730.9c-84.6-362.1-277.5-480.5-297.8-524.5c-23.7-30.5-44-88-44-88
            l16.9,1001.6C1399.7,1680,1369.3,1984.5,1450.5,2021.7z"/>
        
            <linearGradient id="SVGID_5_" gradientUnits="userSpaceOnUse" x1="-112.1838" y1="3010.2688" x2="-612.147" y2="2674.4453" gradientTransform="matrix(-0.9771 -0.323 -0.2901 0.8773 1772.0212 -1240.9092)">
            <stop  offset="0" style="stop-color:#40A248"/>
            <stop  offset="0.3523" style="stop-color:#4AA74B"/>
            <stop  offset="0.9557" style="stop-color:#66B452"/>
            <stop  offset="1" style="stop-color:#68B553"/>
        </linearGradient>
        <path class="st6" d="M1362.5,2035.3c0,0-338.4-230.1-318.1-639.5c20.3-409.4,260.5-609.1,304.5-646.3c30.5-33.8,30.5-44,33.8-77.8
            c20.3,44,16.9,676.7,20.3,751.2C1413.3,1713.8,1386.2,1981.1,1362.5,2035.3z"/>
    </g>
</g>
<path class="st4" d="M1032.8,31.7c61.7-35.3,142.1-35.5,203.8,0c310.2,175.3,620.6,350.3,930.8,525.7c58.3,32.9,97.4,97.8,96.8,165
    v1054.7c0.4,70-42.4,136.5-104,168.6c-309.2,174.3-618.3,348.9-927.4,523.2c-63,36-145,33.2-206-5.7
    c-92.7-53.7-185.6-107.2-278.3-160.9c-18.9-11.3-40.3-20.3-53.7-38.7c11.8-15.9,33-17.9,50.2-24.9c38.7-12.3,74.2-32.1,109.8-51.2
    c9-6.2,20-3.8,28.6,1.7c79.3,45.5,157.8,92.2,237.4,137.2c17,9.8,34.1-3.2,48.7-11.3c303.4-171.5,607.3-342.3,910.6-513.9
    c11.2-5.4,17.5-17.3,16.5-29.7c0.2-347.9,0.1-695.9,0.1-1043.8c1.3-14-6.8-26.8-19.4-32.5C1769,521.8,1461,348,1152.9,174.4
    c-10.9-7.5-25.3-7.5-36.3-0.1C808.5,348,500.6,522,192.5,695.5c-12.6,5.7-21,18.4-19.5,32.4c0.1,347.9,0,695.9,0,1043.9
    c-1.1,12.3,5.6,24,16.8,29.3c82.2,46.6,164.5,92.9,246.8,139.4c46.3,24.9,103.3,39.8,154.3,20.7c45.1-16.2,76.6-62.1,75.8-110
    c0.4-345.9-0.2-691.8,0.3-1037.7c-1.1-15.4,13.4-28,28.4-26.6c39.5-0.3,79.1-0.5,118.6,0.1c16.5-0.4,27.8,16.2,25.8,31.6
    c-0.2,348.1,0.4,696.2-0.3,1044.2c0.1,92.8-38,193.7-123.8,239.1c-105.7,54.8-236.4,43.1-340.8-9.4
    c-90.4-45.1-176.7-98.4-265.5-146.7c-61.7-31.9-104.4-98.7-103.9-168.6V722.5c-0.6-68.6,39.9-134.7,100.1-167.1
    C414.6,380.9,723.7,206.3,1032.8,31.7z"/>
</svg>
